<?xml version="1.0" encoding="UTF-8" standalone="no"?>
<svg
   xmlns:dc="http://purl.org/dc/elements/1.1/"
   xmlns:cc="http://creativecommons.org/ns#"
   xmlns:rdf="http://www.w3.org/1999/02/22-rdf-syntax-ns#"
   xmlns:svg="http://www.w3.org/2000/svg"
   xmlns="http://www.w3.org/2000/svg"
   xmlns:xlink="http://www.w3.org/1999/xlink"
   xmlns:sodipodi="http://sodipodi.sourceforge.net/DTD/sodipodi-0.dtd"
   xmlns:inkscape="http://www.inkscape.org/namespaces/inkscape"
   width="1280"
   height="720"
   viewBox="0 0 338.66667 190.5"
   version="1.1"
   id="svg8"
   inkscape:version="1.0.2-2 (e86c870879, 2021-01-15)"
   sodipodi:docname="start.svg"
   inkscape:export-filename="C:\Users\ARGELIA\Desktop\MATH-PLATTFORM\src\public\assets\start.png"
   inkscape:export-xdpi="96"
   inkscape:export-ydpi="96">
  <defs
     id="defs2">
    <linearGradient
       inkscape:collect="always"
       id="linearGradient992">
      <stop
         style="stop-color:#21faff;stop-opacity:1;"
         offset="0"
         id="stop988" />
      <stop
         style="stop-color:#ffffff;stop-opacity:1"
         offset="1"
         id="stop990" />
    </linearGradient>
    <inkscape:perspective
       sodipodi:type="inkscape:persp3d"
       inkscape:vp_x="0 : 95.25 : 1"
       inkscape:vp_y="0 : 1000 : 0"
       inkscape:vp_z="338.66667 : 95.25 : 1"
       inkscape:persp3d-origin="169.33334 : 63.5 : 1"
       id="perspective10" />
    <filter
       inkscape:collect="always"
       style="color-interpolation-filters:sRGB"
       id="filter984"
       x="-0.025281053"
       width="1.0505621"
       y="-0.0943847"
       height="1.1887694">
      <feGaussianBlur
         inkscape:collect="always"
         stdDeviation="2.6317528"
         id="feGaussianBlur986" />
    </filter>
    <linearGradient
       inkscape:collect="always"
       xlink:href="#linearGradient992"
       id="linearGradient994"
       x1="5.1744914"
       y1="112.88442"
       x2="335.38712"
       y2="115.87247"
       gradientUnits="userSpaceOnUse" />
  </defs>
  <sodipodi:namedview
     id="base"
     pagecolor="#ffffff"
     bordercolor="#666666"
     borderopacity="1.0"
     inkscape:pageopacity="0.0"
     inkscape:pageshadow="2"
     inkscape:zoom="0.24748737"
     inkscape:cx="1352.157"
     inkscape:cy="616.20556"
     inkscape:document-units="mm"
     inkscape:current-layer="layer1"
     inkscape:document-rotation="0"
     showgrid="false"
     units="px"
     inkscape:window-width="1024"
     inkscape:window-height="705"
     inkscape:window-x="-8"
     inkscape:window-y="-8"
     inkscape:window-maximized="1" />
  <metadata
     id="metadata5">
    <rdf:RDF>
      <cc:Work
         rdf:about="">
        <dc:format>image/svg+xml</dc:format>
        <dc:type
           rdf:resource="http://purl.org/dc/dcmitype/StillImage" />
        <dc:title />
      </cc:Work>
    </rdf:RDF>
  </metadata>
  <g
     inkscape:label="Capa 1"
     inkscape:groupmode="layer"
     id="layer1">
    <rect
       style="fill:url(#linearGradient994);fill-opacity:1;stroke:#ffffff;stroke-width:1.20353;stroke-linejoin:round;stroke-opacity:1"
       id="rect833"
       width="339.90012"
       height="192.76785"
       x="1.4999419"
       y="-0.60475218" />
    <g
       id="g980"
       transform="matrix(0.74685811,0,0,0.74685811,279.60107,84.406665)">
      <g
         id="g868"
         transform="translate(-60.216772,-84.215539)">
        <path
           style="fill:none;stroke:#000000;stroke-width:1.5;stroke-linecap:butt;stroke-linejoin:miter;stroke-miterlimit:4;stroke-dasharray:none;stroke-opacity:1"
           d="M 75.295243,24.588796 C 159.0368,-4.2611185 131.84212,163.14985 64.676392,112.58192"
           id="path836"
           sodipodi:nodetypes="cc" />
        <path
           style="fill:none;stroke:#000000;stroke-width:1.50855;stroke-linecap:butt;stroke-linejoin:miter;stroke-miterlimit:4;stroke-dasharray:none;stroke-opacity:1"
           d="M 52.861021,25.117964 C -31.837315,-3.7319513 -3.2567196,163.14985 64.676392,112.58192"
           id="path836-1"
           sodipodi:nodetypes="cc" />
        <path
           style="fill:none;stroke:#000000;stroke-width:1.4;stroke-linecap:butt;stroke-linejoin:miter;stroke-miterlimit:4;stroke-dasharray:none;stroke-opacity:1"
           d="m 52.861021,25.117964 11.283666,4.816224 11.150556,-5.345392"
           id="path858"
           sodipodi:nodetypes="ccc" />
        <path
           style="fill:#f70000;fill-opacity:1;stroke:#000000;stroke-width:7.55905;stroke-linejoin:round;stroke-miterlimit:4;stroke-dasharray:none;stroke-opacity:0"
           d="m 349.91853,82.950026 c -35.16558,-0.648917 -68.36151,12.760118 -99.09,28.567024 -4.7471,3.27894 -9.91448,4.23906 -14.86926,0.92237 C 200.97562,97.18097 163.94757,83.058457 125.08874,84.462302 87.283928,84.535151 50.234219,104.34932 30.412398,136.75862 1.0148388,183.80472 -1.0560818,243.09947 9.6890979,296.17964 c 9.5510051,43.95377 28.5565671,87.71189 62.9309531,117.9183 21.826685,22.17877 54.121289,33.56334 85.038439,29.65007 31.07314,-2.03015 58.37386,-18.96295 83.9202,-35.24274 8.66194,-1.56463 14.7624,7.82927 22.26841,10.89286 31.83716,19.95764 72.8117,31.43478 109.05135,16.69084 46.73352,-18.36781 75.69991,-64.37846 90.89428,-110.22746 18.26653,-55.99364 21.63687,-119.55453 -2.52933,-174.33448 -16.44664,-38.13279 -54.53463,-67.97475 -96.88535,-68.426995 -4.81693,-0.181095 -9.63972,-0.198522 -14.45952,-0.150009 z"
           id="path862"
           transform="scale(0.26458333)" />
      </g>
      <path
         id="path870"
         style="fill:#ff6565;fill-opacity:1;stroke:#000000;stroke-width:1.4;stroke-linejoin:round;stroke-miterlimit:4;stroke-dasharray:none;stroke-opacity:0"
         d="m 32.496489,-50.043616 c 3.560544,-3.900242 12.433882,-0.483539 17.488122,5.300188 5.05424,5.783725 7.92074,19.241723 3.46131,22.070792 -4.56488,2.89597 -14.20035,-5.062031 -18.243834,-9.834335 -4.965256,-5.860225 -6.26639,-13.634109 -2.706749,-17.535383 l 9.152663,10.471747 z"
         sodipodi:nodetypes="csssccc" />
      <path
         style="fill:none;stroke:#000000;stroke-width:0;stroke-linecap:butt;stroke-linejoin:miter;stroke-miterlimit:4;stroke-dasharray:none;stroke-opacity:1"
         d="M 2.214116,-53.936777 C -96.992189,-80.753588 -42.31928,74.957107 3.133956,31.673347"
         id="path873"
         sodipodi:nodetypes="cc" />
      <path
         style="fill:#c30000;fill-opacity:1;stroke:#000000;stroke-width:1.43732;stroke-linejoin:round;stroke-miterlimit:4;stroke-dasharray:none;stroke-opacity:0"
         d="m -25.717224,-62.005588 c -9.553477,-0.366707 -19.052868,4.445603 -24.709902,12.385655 -6.95339,9.732978 -8.946739,22.317543 -8.30719,34.163508 0.608504,12.000027 3.693236,24.203682 9.984411,34.364022 3.7289,5.74362 8.890036,11.46101 14.821451,14.82161 5.076997,2.7487 10.754458,4.1735 16.475591,3.37658 1.859587,-0.2362 3.73821,-0.32216 5.41742,-1.15981 -0.304546,-1.09927 -2.123074,-0.95684 -3.034326,-1.23884 -8.347281,-0.56995 -15.406023,-6.14095 -20.797954,-12.33012 -9.942002,-11.77167 -15.781268,-27.127571 -16.667282,-42.676858 -0.487327,-10.101555 2.781352,-20.241017 9.995462,-27.5655 6.325394,-6.502014 14.460987,-9.638628 23.09428,-9.563433 6.016797,-0.07903 11.971724,1.001301 17.875216,2.000471 0.841816,-0.844788 -0.946116,-1.162732 -1.4775,-1.4721 -7.200122,-3.033014 -14.826221,-5.288501 -22.669677,-5.105185 z"
         id="path875"
         sodipodi:nodetypes="ccccccccccccccc" />
      <path
         style="fill:none;stroke:#000000;stroke-width:2.965;stroke-linecap:butt;stroke-linejoin:miter;stroke-miterlimit:4;stroke-dasharray:none;stroke-opacity:1"
         d="m 3.927914,-54.281352 c -4.198908,-11.146145 -8.2081,-17.340056 -24.268008,-26.072886"
         id="path877"
         sodipodi:nodetypes="cc" />
      <path
         style="fill:#c30000;fill-opacity:1;stroke:#000000;stroke-width:0;stroke-linejoin:round;stroke-miterlimit:4;stroke-dasharray:none;stroke-opacity:0"
         d="m 3.6813889,23.539996 c -5.7474325,3.603469 -11.6321733,7.356885 -18.3309229,8.799944 -1.987574,0.449035 -4.036277,0.499398 -6.058138,0.799139 -0.474171,0.178869 -0.198059,0.789512 0.222578,0.800809 2.312326,0.780013 4.836797,0.960321 7.1618,1.400236 0.49595,0.04785 0.895096,0.39433 1.087419,0.824426 0.557498,0.297431 1.18505,-0.197154 1.744374,-0.289833 5.2133628,-1.716817 10.02081546,-4.487761 14.4508347,-7.697131 0.1678437,0.511085 0.8157527,0.598832 0.9853586,0.03617 0.6195986,0.308711 1.2526116,0.898252 1.891911,1.304092 4.7532207,3.292993 10.0242047,5.976752 15.6906247,7.253896 0.67065,0.02283 0.544285,-0.834459 0.56715,-1.276962 -0.03287,-1.119862 0.09102,-2.272157 -0.06468,-3.370056 C 22.489098,31.726018 21.68644,31.733447 21.039677,31.49755 17.090914,30.439861 13.356558,28.693973 9.8447914,26.591248 8.0731018,25.706934 6.7089154,24.041543 4.7324515,23.582446 4.3869453,23.549114 4.0195052,23.435708 3.6813889,23.539996 Z"
         id="path879" />
      <path
         style="fill:#c30000;fill-opacity:1;stroke:#000000;stroke-width:0;stroke-linejoin:round;stroke-miterlimit:4;stroke-dasharray:none;stroke-opacity:0"
         d="m 65.865732,-13.537701 c -0.611132,0.625996 -0.197448,1.655879 -0.497938,2.437283 -1.781818,10.65773169 -5.196509,21.271815 -11.795514,29.982665 -4.986668,6.628723 -12.094766,12.114792 -20.418835,13.474261 -3.272734,0.382394 -6.626259,0.315889 -9.870567,-0.239189 -0.824783,0.491369 -0.277389,1.755741 -0.451061,2.531407 0.07246,0.904353 -0.443537,2.575393 1.053613,2.341422 5.811996,1.141235 11.941857,0.119779 17.220326,-2.50258 8.654336,-4.463322 14.647897,-12.739685 18.680245,-21.390128 3.719541,-8.1693043 5.976075,-17.0233156 6.621597,-25.974051 0.02535,-0.315714 -0.118843,-0.786706 -0.541866,-0.66109 z"
         id="path881" />
    </g>
    <g
       id="g936"
       transform="translate(17.462505,0.52916667)">
      <rect
         style="fill:#c87137;fill-opacity:1;stroke:#19ff31;stroke-width:0.781598;stroke-linejoin:round;stroke-opacity:0"
         id="rect1420"
         width="129.89502"
         height="64.177803"
         x="187.87405"
         y="115.34331"
         ry="5.8517752" />
      <rect
         style="fill:#00f555;fill-opacity:1;stroke:#19ff31;stroke-width:0.781598;stroke-linejoin:round;stroke-opacity:0"
         id="rect1422"
         width="130.05055"
         height="23.061867"
         x="187.87405"
         y="115.34331"
         ry="5.8517752" />
      <text
         xml:space="preserve"
         style="font-style:normal;font-variant:normal;font-weight:bold;font-stretch:normal;font-size:38.5892px;line-height:1.25;font-family:Arimo;-inkscape-font-specification:'Arimo, Bold';font-variant-ligatures:normal;font-variant-caps:normal;font-variant-numeric:normal;font-variant-east-asian:normal;word-spacing:0px;fill:#ffffff;fill-opacity:1;stroke-width:0.144709"
         x="212.87679"
         y="160.69841"
         id="text1019"
         transform="scale(0.9403525,1.063431)"><tspan
           sodipodi:role="line"
           id="tspan1017"
           x="212.87679"
           y="160.69841"
           style="font-style:normal;font-variant:normal;font-weight:bold;font-stretch:normal;font-size:38.5892px;font-family:Arimo;-inkscape-font-specification:'Arimo, Bold';font-variant-ligatures:normal;font-variant-caps:normal;font-variant-numeric:normal;font-variant-east-asian:normal;fill:#ffffff;fill-opacity:1;stroke-width:0.144709">a+b=c </tspan></text>
    </g>
    <text
       xml:space="preserve"
       style="font-style:normal;font-variant:normal;font-weight:bold;font-stretch:normal;font-size:34.1775px;line-height:1.25;font-family:Arimo;-inkscape-font-specification:'Arimo, Bold';font-variant-ligatures:normal;font-variant-caps:normal;font-variant-numeric:normal;font-variant-east-asian:normal;word-spacing:0px;fill:#000000;fill-opacity:1;stroke:#000000;stroke-width:1.218;stroke-miterlimit:4;stroke-dasharray:none;stroke-opacity:1;filter:url(#filter984)"
       x="11.56092"
       y="34.878227"
       id="text1023"
       transform="matrix(0.85730573,0,0,1.0708653,-0.28030989,0.74887821)"><tspan
         sodipodi:role="line"
         x="11.56092"
         y="34.878227"
         style="font-style:normal;font-variant:normal;font-weight:bold;font-stretch:normal;font-size:34.1775px;font-family:Arimo;-inkscape-font-specification:'Arimo, Bold';font-variant-ligatures:normal;font-variant-caps:normal;font-variant-numeric:normal;font-variant-east-asian:normal;fill:#000000;fill-opacity:1;stroke:#000000;stroke-width:1.218;stroke-miterlimit:4;stroke-dasharray:none;stroke-opacity:1"
         id="tspan938">OPERACIONES</tspan><tspan
         sodipodi:role="line"
         x="11.56092"
         y="77.600105"
         style="font-style:normal;font-variant:normal;font-weight:bold;font-stretch:normal;font-size:34.1775px;font-family:Arimo;-inkscape-font-specification:'Arimo, Bold';font-variant-ligatures:normal;font-variant-caps:normal;font-variant-numeric:normal;font-variant-east-asian:normal;fill:#000000;fill-opacity:1;stroke:#000000;stroke-width:1.218;stroke-miterlimit:4;stroke-dasharray:none;stroke-opacity:1"
         id="tspan866">ENGAÑOSAS</tspan></text>
    <text
       xml:space="preserve"
       style="font-style:normal;font-variant:normal;font-weight:bold;font-stretch:normal;font-size:32.3893px;line-height:1.25;font-family:Arimo;-inkscape-font-specification:'Arimo, Bold';font-variant-ligatures:normal;font-variant-caps:normal;font-variant-numeric:normal;font-variant-east-asian:normal;word-spacing:0px;fill:#ffffff;fill-opacity:1;stroke:#ffffff;stroke-width:1.15427;stroke-miterlimit:4;stroke-dasharray:none;stroke-opacity:1"
       x="11.433064"
       y="33.731392"
       id="text1023-3"
       transform="scale(0.89474737,1.1176339)"><tspan
         sodipodi:role="line"
         x="11.433064"
         y="33.731392"
         style="font-style:normal;font-variant:normal;font-weight:bold;font-stretch:normal;font-size:32.3893px;font-family:Arimo;-inkscape-font-specification:'Arimo, Bold';font-variant-ligatures:normal;font-variant-caps:normal;font-variant-numeric:normal;font-variant-east-asian:normal;fill:#ffffff;fill-opacity:1;stroke:#ffffff;stroke-width:1.15427;stroke-miterlimit:4;stroke-dasharray:none;stroke-opacity:1"
         id="tspan938-1">OPERACIONES</tspan><tspan
         sodipodi:role="line"
         x="11.433064"
         y="74.218018"
         style="font-style:normal;font-variant:normal;font-weight:bold;font-stretch:normal;font-size:32.3893px;font-family:Arimo;-inkscape-font-specification:'Arimo, Bold';font-variant-ligatures:normal;font-variant-caps:normal;font-variant-numeric:normal;font-variant-east-asian:normal;fill:#ffffff;fill-opacity:1;stroke:#ffffff;stroke-width:1.15427;stroke-miterlimit:4;stroke-dasharray:none;stroke-opacity:1"
         id="tspan866-8">ENGAÑOSAS</tspan></text>
  </g>
</svg>
